<svg class="icon" xmlns="http://www.w3.org/2000/svg" viewBox="0 0 32 32">
<path fill="#0ea5e9" d="M16 .396C7.163.396 0 7.559 0 16.396c0 2.89.756 5.71 2.193 8.19L0 32l7.61-2.145a15.94 15.94 0 0 0 8.39 2.314h.006c8.837 0 16-7.163 16-16S24.837.396 16 .396zm0 29.23c-2.53 0-5.02-.682-7.19-1.97l-.516-.306-4.514 1.27 1.205-4.401-.336-.542a13.56 13.56 0 0 1-2.08-7.281c0-7.49 6.095-13.585 13.585-13.585 3.627 0 7.037 1.414 9.6 3.977a13.49 13.49 0 0 1 3.978 9.608c-.002 7.49-6.097 13.584-13.587 13.584zm7.47-10.146c-.408-.204-2.414-1.19-2.787-1.326-.373-.136-.645-.204-.917.204-.272.408-1.053 1.326-1.292 1.6-.238.272-.476.306-.884.102-.408-.204-1.723-.635-3.283-2.026-1.214-1.083-2.034-2.42-2.272-2.828-.238-.408-.026-.628.178-.832.183-.183.408-.476.612-.714.204-.238.272-.408.408-.68.136-.272.068-.51-.034-.714-.102-.204-.917-2.21-1.258-3.024-.331-.796-.667-.688-.917-.701l-.781-.014c-.272 0-.714.102-1.088.51-.373.408-1.428 1.396-1.428 3.402s1.462 3.946 1.666 4.218c.204.272 2.879 4.396 6.976 6.163.975.421 1.735.672 2.327.86.977.311 1.867.267 2.57.162.784-.117 2.414-.986 2.756-1.938.34-.952.34-1.768.238-1.938-.102-.17-.373-.272-.781-.476z"></path>
</svg>